<svg xmlns="http://www.w3.org/2000/svg" viewBox="0 0 360 260" role="img" aria-labelledby="title">
  <title id="title">IGCSE Combined Science symbol</title>
  <rect width="360" height="260" rx="24" fill="#ffffff"/>
  <path d="M218 52h64v150h-38v-16h22V68h-48V52Z" fill="#071a3d"/>
  <path d="M84 108h30v94H84v-94Z" fill="#071a3d"/>
  <circle cx="99" cy="74" r="14" fill="#0758e8"/>
  <path d="M136 108h30v68h78v26H136v-94Z" fill="#0758e8"/>
  <path d="M225 120c21-31 50-34 69-28-2 24-19 45-51 48l-24 26" fill="#0758e8"/>
  <path d="M229 135l38-28" fill="none" stroke="#ffffff" stroke-width="5" stroke-linecap="round"/>
  <g fill="none" stroke="#071a3d" stroke-width="4">
    <ellipse cx="263" cy="162" rx="44" ry="13" transform="rotate(18 263 162)"/>
    <ellipse cx="263" cy="162" rx="44" ry="13" transform="rotate(-48 263 162)"/>
    <ellipse cx="263" cy="162" rx="44" ry="13" transform="rotate(84 263 162)"/>
  </g>
  <circle cx="263" cy="162" r="7" fill="#071a3d"/>
  <circle cx="306" cy="161" r="5" fill="#0758e8"/>
  <text x="38" y="232" fill="#0758e8" font-family="Inter, Segoe UI, Arial, sans-serif" font-size="31" font-weight="800">Combined Science</text>
</svg>
